<?xml version="1.0" standalone="no"?>
<!DOCTYPE svg PUBLIC "-//W3C//DTD SVG 20010904//EN"
 "http://www.w3.org/TR/2001/REC-SVG-20010904/DTD/svg10.dtd">
<svg version="1.0" xmlns="http://www.w3.org/2000/svg"
 width="876.000000pt" height="438.000000pt" viewBox="0 0 876.000000 438.000000"
 preserveAspectRatio="xMidYMid meet">
<metadata>
Created by potrace 1.16, written by Peter Selinger 2001-2019
</metadata>
<g transform="translate(0.000000,438.000000) scale(0.100000,-0.100000)"
fill="#000000" stroke="none">
<path d="M3830 3070 l0 -911 78 3 77 3 5 400 5 400 42 3 43 3 2 -403 3 -403
80 0 80 0 3 885 c1 487 0 895 -3 908 -5 20 -11 22 -79 22 -58 0 -75 -3 -80
-16 -3 -9 -6 -202 -6 -430 l0 -415 -42 3 -43 3 -5 425 -5 425 -77 3 -78 3 0
-911z"/>
<path d="M4465 3968 c-3 -7 -4 -411 -3 -898 l3 -885 35 0 35 0 0 895 0 895
-33 3 c-20 2 -34 -2 -37 -10z"/>
<path d="M4945 3968 c-51 -18 -86 -49 -106 -92 -18 -39 -19 -82 -19 -839 0
-775 1 -799 20 -837 75 -147 341 -129 388 27 8 28 12 142 12 377 l0 336 -80 0
-80 0 0 -332 c-1 -356 -2 -368 -50 -368 -51 0 -49 -20 -50 803 0 754 0 767 20
787 24 24 30 24 56 6 18 -14 19 -32 24 -318 l5 -303 75 0 75 0 3 295 c3 327
-1 363 -53 414 -51 51 -162 71 -240 44z"/>
<path d="M2035 1661 c-23 -10 -50 -31 -60 -47 -19 -28 -20 -50 -20 -659 0
-701 -3 -674 68 -712 49 -26 143 -24 188 5 70 43 69 30 69 701 0 619 -1 642
-42 687 -39 44 -136 56 -203 25z m115 -100 c6 -13 10 -222 10 -609 0 -558 -1
-591 -18 -613 -23 -27 -48 -21 -62 17 -13 32 -9 1192 3 1212 13 19 55 14 67
-7z"/>
<path d="M4463 1659 c-80 -40 -78 -16 -81 -672 -3 -622 0 -672 44 -718 68 -71
217 -57 261 24 16 28 18 63 18 302 l0 270 -55 0 -55 0 -5 -257 c-4 -220 -7
-260 -21 -274 -13 -13 -21 -14 -38 -5 l-21 12 0 607 c0 635 0 632 42 632 32 0
38 -45 38 -271 l0 -219 61 0 61 0 -4 248 -3 249 -27 34 c-44 59 -139 76 -215
38z"/>
<path d="M5565 1665 c-47 -17 -72 -45 -80 -88 -3 -18 -5 -310 -3 -649 3 -607
3 -617 24 -645 11 -15 34 -35 50 -43 41 -20 140 -18 186 4 65 31 69 51 66 338
l-3 253 -55 0 -55 0 -5 -253 c-4 -210 -8 -254 -20 -262 -17 -11 -51 -3 -62 14
-4 6 -8 135 -8 287 0 243 2 278 16 283 9 3 56 6 105 6 l89 0 0 335 c0 275 -3
341 -15 364 -29 57 -149 86 -230 56z m114 -89 c8 -9 11 -96 9 -297 l-3 -284
-40 0 -40 0 -3 284 c-2 299 -1 311 43 311 12 0 28 -6 34 -14z"/>
<path d="M7240 1667 c-19 -8 -45 -29 -58 -47 -22 -33 -22 -38 -20 -274 l3
-241 50 0 50 0 3 234 c1 152 6 239 13 248 14 16 51 17 67 1 9 -9 12 -79 12
-252 0 -271 -1 -276 -76 -332 -21 -16 -58 -48 -82 -71 l-43 -41 3 -300 3 -300
24 -26 c32 -34 108 -37 136 -6 23 25 32 25 40 0 5 -16 15 -20 55 -20 43 0 50
3 55 23 3 12 5 315 3 672 -3 602 -4 653 -21 678 -9 15 -28 34 -42 43 -32 21
-131 27 -175 11z m120 -1015 c0 -324 -1 -332 -45 -332 -44 0 -45 10 -45 303
l0 279 29 29 c61 61 61 62 61 -279z"/>
<path d="M5248 1663 c-14 -2 -32 -11 -38 -19 -16 -18 -36 -18 -44 2 -4 11 -18
14 -53 12 l-48 -3 0 -705 0 -705 50 0 50 0 5 655 c3 360 9 661 13 668 10 15
39 16 55 0 9 -9 12 -169 12 -657 0 -356 4 -652 9 -659 5 -9 25 -12 57 -10 l49
3 3 645 c2 355 0 664 -3 687 -10 68 -47 96 -117 86z"/>
<path d="M6107 1660 c-16 -5 -35 -14 -43 -21 -11 -9 -18 -8 -33 5 -13 12 -32
16 -62 14 l-44 -3 0 -705 0 -705 55 0 55 0 5 659 c5 605 6 660 22 669 13 9 22
7 37 -7 21 -19 21 -28 23 -670 l3 -651 50 0 50 0 5 655 c3 360 9 661 13 668
13 19 44 14 61 -10 14 -20 16 -100 16 -671 l0 -648 53 3 52 3 0 687 0 687 -22
22 c-30 30 -105 30 -137 0 -24 -23 -46 -28 -46 -10 0 10 -61 40 -77 38 -4 0
-21 -5 -36 -9z"/>
<path d="M6727 1660 c-16 -5 -35 -14 -43 -21 -12 -10 -17 -9 -27 5 -10 13 -24
17 -62 14 l-50 -3 0 -705 0 -705 55 0 55 0 5 659 c5 605 6 660 22 669 13 9 22
7 37 -7 21 -19 21 -28 23 -670 l3 -651 50 0 50 0 5 655 c3 360 9 661 13 668
10 15 39 16 55 0 9 -9 12 -169 12 -657 0 -356 4 -652 9 -659 5 -9 25 -12 57
-10 l49 3 3 655 c1 360 0 669 -3 687 -10 55 -35 76 -89 75 -34 0 -54 -6 -70
-21 -24 -23 -46 -28 -46 -10 0 10 -61 40 -77 38 -4 0 -21 -5 -36 -9z"/>
<path d="M1525 1648 c-3 -7 -4 -326 -3 -708 l3 -695 55 0 55 0 5 315 5 315 35
0 35 0 5 -315 5 -315 55 0 55 0 0 705 0 705 -55 0 -55 0 -5 -330 -5 -330 -35
0 -35 0 -5 330 -5 330 -53 3 c-36 2 -54 -1 -57 -10z"/>
<path d="M2395 1648 c-3 -7 -4 -326 -3 -708 l3 -695 130 0 130 0 3 52 3 53
-63 0 c-35 0 -69 4 -75 8 -10 6 -13 152 -15 653 l-3 644 -53 3 c-36 2 -54 -1
-57 -10z"/>
<path d="M2735 1649 c-3 -8 -4 -327 -3 -709 l3 -695 105 1 c121 0 164 15 195
67 18 29 20 52 20 283 0 282 -2 293 -67 321 -21 9 -38 20 -38 25 0 4 15 14 34
22 69 29 71 39 71 331 0 240 -1 262 -20 292 -30 50 -75 66 -192 71 -80 3 -104
1 -108 -9z m187 -103 c4 -6 8 -127 8 -268 0 -224 -2 -259 -16 -273 -9 -9 -26
-15 -38 -13 -21 3 -21 6 -24 282 -2 217 1 281 10 288 15 9 50 0 60 -16z m-8
-672 c14 -13 16 -51 16 -259 0 -211 -2 -246 -16 -260 -9 -9 -26 -15 -38 -13
-21 3 -21 6 -24 263 -1 143 0 265 3 272 6 18 40 16 59 -3z"/>
<path d="M3253 1647 c-18 -7 -43 -22 -55 -35 -23 -22 -23 -26 -23 -265 l0
-242 46 -3 c39 -3 47 0 52 16 2 11 5 116 6 233 0 117 5 217 10 222 5 5 19 7
32 5 l24 -3 3 -257 c3 -291 13 -252 -91 -338 -91 -74 -87 -58 -87 -385 0 -236
3 -291 15 -315 36 -70 141 -78 201 -14 l32 33 23 -28 c53 -63 151 -60 210 6
l29 34 -2 262 -3 262 -55 0 -55 0 -5 -255 c-3 -140 -7 -256 -8 -256 -14 -9
-44 -9 -57 0 -13 10 -15 47 -13 296 l3 285 98 3 97 3 0 329 c0 225 -4 337 -11
354 -22 48 -69 61 -234 63 -99 2 -161 -2 -182 -10z m296 -81 c8 -9 11 -95 9
-292 l-3 -279 -37 -3 -38 -3 0 289 c0 159 3 292 7 295 11 12 50 8 62 -7z
m-199 -925 c0 -330 -2 -341 -50 -326 -19 6 -20 14 -21 273 -1 322 -2 312 24
340 46 49 47 43 47 -287z"/>
<path d="M3796 1635 c-8 -31 -7 -1343 1 -1373 5 -21 11 -23 62 -20 l56 3 5
315 c5 297 10 352 24 235 4 -27 10 -79 15 -115 5 -36 19 -144 31 -240 12 -96
27 -181 32 -187 14 -17 107 -17 113 0 5 11 -1 55 -35 267 -5 30 -23 145 -40
255 l-31 200 21 125 c19 117 49 288 71 405 5 28 12 74 15 103 l7 52 -56 0
c-31 0 -58 -3 -61 -8 -2 -4 -14 -73 -25 -152 -20 -138 -26 -174 -52 -343 -6
-39 -14 -79 -18 -87 -3 -8 -8 120 -11 285 l-5 300 -56 3 c-53 3 -57 1 -63 -23z"/>
<path d="M4825 1648 c-3 -7 -4 -326 -3 -708 l3 -695 55 0 55 0 0 705 0 705
-53 3 c-36 2 -54 -1 -57 -10z"/>
</g>
</svg>
